<svg xmlns="http://www.w3.org/2000/svg" viewBox="0 0 162.9 47.36"><defs><style>.cls-1{fill:#020202;}.cls-2{fill:none;stroke:#020202;stroke-miterlimit:10;stroke-width:0.5px;}</style></defs><g id="Layer_2" data-name="Layer 2"><g id="Layer_1-2" data-name="Layer 1"><path class="cls-1" d="M47.36,23.68A23.67,23.67,0,0,1,31.3,46.1l-.61-12a1.61,1.61,0,0,0,.88-1.56V11.05c-1.89,0-3.43,2-3.55,4.54a.55.55,0,0,1,0,.89v.4a.48.48,0,0,1,.24.45.49.49,0,0,1-.24.44v.4a.49.49,0,0,1,.24.45.47.47,0,0,1-.24.44v.4a.49.49,0,0,1,.24.45.47.47,0,0,1-.24.44v.41a.46.46,0,0,1,.24.44.47.47,0,0,1-.24.44v.41a.46.46,0,0,1,.24.44.47.47,0,0,1-.24.44v.41a.52.52,0,0,1,0,.88v.41a.52.52,0,0,1,0,.88v.41a.46.46,0,0,1,.24.44.49.49,0,0,1-.24.45v.4a.46.46,0,0,1,.24.44.49.49,0,0,1-.24.45v.4a.48.48,0,0,1,.24.45.49.49,0,0,1-.24.44v.4a.48.48,0,0,1,.24.45.49.49,0,0,1-.24.44v.4a.48.48,0,0,1,.24.45A.49.49,0,0,1,28,32v.4a.48.48,0,0,1,.24.45.55.55,0,0,1-.13.36,1.45,1.45,0,0,0,.73.89l-.62,12.85a23.38,23.38,0,0,1-4.54.44,21.43,21.43,0,0,1-2.27-.11l-1-21.48H21.6a2.24,2.24,0,0,0,2.24-2.24L23.4,11.78a.44.44,0,0,0-.44-.43h-.44V20.6a.6.6,0,0,1-.6.61h0a.6.6,0,0,1-.6-.61V11.78a.44.44,0,0,0-.88,0V20.6a.6.6,0,0,1-.6.61h0a.6.6,0,0,1-.6-.61V11.78a.44.44,0,0,0-.88,0V20.6a.6.6,0,0,1-.6.61h0a.6.6,0,0,1-.6-.61V11.35h-.44a.43.43,0,0,0-.43.43l-.45,11.75A2.24,2.24,0,0,0,18,25.77h1.1l-.9,21a23.68,23.68,0,1,1,29.13-23Z"/><path class="cls-1" d="M60.29,17.89h4.93v2.49a5.93,5.93,0,0,1-.62,2.8A4.47,4.47,0,0,1,62.86,25a5,5,0,0,1-2.62.66,5.46,5.46,0,0,1-2.65-.62,4.39,4.39,0,0,1-1.77-1.75,5.48,5.48,0,0,1-.62-2.64v-4.2a5.9,5.9,0,0,1,.62-2.8,4.47,4.47,0,0,1,1.74-1.86,5,5,0,0,1,2.62-.66,4.9,4.9,0,0,1,2.27.53,5,5,0,0,1,1.72,1.48,5.55,5.55,0,0,1,.94,2.22H62.94a2.88,2.88,0,0,0-1.06-1.69,2.77,2.77,0,0,0-1.7-.59,2.68,2.68,0,0,0-2.13.92,3.6,3.6,0,0,0-.81,2.45v4.2a3,3,0,0,0,.83,2.23,2.93,2.93,0,0,0,2.17.83,2.72,2.72,0,0,0,2.13-.88,3.49,3.49,0,0,0,.81-2.46V19.8H60.29Z"/><path class="cls-1" d="M67.5,25.56l5.25-14.24h1.7L79.7,25.56H77.55l-4-11.49L69.65,25.56Zm2.42-3.13v-1.9h7.49v1.9Z"/><path class="cls-1" d="M86.35,25.7a9.35,9.35,0,0,1-1.95-.19,7.32,7.32,0,0,1-3.21-1.57l1.25-1.53a5.73,5.73,0,0,0,1.79,1.06,6.33,6.33,0,0,0,2.12.35,4.19,4.19,0,0,0,2.4-.58,1.82,1.82,0,0,0,.85-1.61h0a1.66,1.66,0,0,0-.43-1.24A2.56,2.56,0,0,0,88,19.73a11.61,11.61,0,0,0-1.53-.34c-.53-.1-1.08-.2-1.62-.33a5.2,5.2,0,0,1-1.5-.58,2.81,2.81,0,0,1-1.1-1.14,4.06,4.06,0,0,1-.42-2h0a3.78,3.78,0,0,1,1.32-3.08,5.7,5.7,0,0,1,3.73-1.09,6.83,6.83,0,0,1,2.24.37,7.71,7.71,0,0,1,2.14,1.12l-1.14,1.59a6.31,6.31,0,0,0-1.62-.91,4.86,4.86,0,0,0-1.62-.29,3.78,3.78,0,0,0-2.26.58,1.92,1.92,0,0,0-.81,1.65h0a1.54,1.54,0,0,0,.47,1.23,2.86,2.86,0,0,0,1.23.62c.5.13,1,.26,1.63.38s1,.23,1.56.37a5.16,5.16,0,0,1,1.43.64,3.07,3.07,0,0,1,1,1.14,4.09,4.09,0,0,1,.38,1.89v0a3.61,3.61,0,0,1-1.37,3A6.09,6.09,0,0,1,86.35,25.7Z"/><path class="cls-1" d="M93.47,13.22v-1.9h10v1.9Zm4,12.34V12.48h2V25.56Z"/><path class="cls-1" d="M106.47,25.56V11.31h2V25.56Zm.88-6v-1.9h4.85a1.77,1.77,0,0,0,1.4-.6,2.33,2.33,0,0,0,.53-1.61,2.33,2.33,0,0,0-.53-1.61,1.77,1.77,0,0,0-1.4-.6h-4.85v-1.9h4.77a4.47,4.47,0,0,1,2.18.51,3.57,3.57,0,0,1,1.44,1.44,4.27,4.27,0,0,1,.52,2.16,4.42,4.42,0,0,1-.52,2.16A3.65,3.65,0,0,1,114.29,19a4.41,4.41,0,0,1-2.17.51Zm7.13,6-3.26-6.47,2-.45,3.64,6.92Z"/><path class="cls-1" d="M124.87,25.7a5.22,5.22,0,0,1-2.64-.65,4.45,4.45,0,0,1-1.74-1.83,5.84,5.84,0,0,1-.63-2.77v-4a5.81,5.81,0,0,1,.63-2.77,4.51,4.51,0,0,1,1.74-1.83,5.67,5.67,0,0,1,5.27,0,4.6,4.6,0,0,1,1.75,1.83,5.92,5.92,0,0,1,.62,2.77v4a6,6,0,0,1-.62,2.77,4.54,4.54,0,0,1-1.75,1.83A5.21,5.21,0,0,1,124.87,25.7Zm0-2a2.78,2.78,0,0,0,2.15-.88,3.29,3.29,0,0,0,.81-2.33V16.35A3.29,3.29,0,0,0,127,14a3.07,3.07,0,0,0-4.3,0,3.29,3.29,0,0,0-.81,2.33v4.17a3.29,3.29,0,0,0,.81,2.33A2.78,2.78,0,0,0,124.87,23.73Z"/><path class="cls-1" d="M138,25.7a9.35,9.35,0,0,1-2-.19,7.32,7.32,0,0,1-3.21-1.57l1.25-1.53a5.73,5.73,0,0,0,1.79,1.06,6.33,6.33,0,0,0,2.12.35,4.17,4.17,0,0,0,2.4-.58,1.83,1.83,0,0,0,.86-1.61h0a1.66,1.66,0,0,0-.44-1.24,2.56,2.56,0,0,0-1.13-.65,11.61,11.61,0,0,0-1.53-.34c-.53-.1-1.07-.2-1.62-.33a5.2,5.2,0,0,1-1.5-.58,2.9,2.9,0,0,1-1.11-1.14,4.18,4.18,0,0,1-.41-2h0a3.78,3.78,0,0,1,1.32-3.08,5.7,5.7,0,0,1,3.73-1.09,6.83,6.83,0,0,1,2.24.37,7.71,7.71,0,0,1,2.14,1.12l-1.14,1.59a6.31,6.31,0,0,0-1.62-.91,4.86,4.86,0,0,0-1.62-.29,3.83,3.83,0,0,0-2.27.58,1.93,1.93,0,0,0-.8,1.65h0a1.54,1.54,0,0,0,.47,1.23,2.86,2.86,0,0,0,1.23.62c.5.13,1.05.26,1.63.38s1,.23,1.56.37a5.16,5.16,0,0,1,1.43.64,3.07,3.07,0,0,1,1,1.14,4.09,4.09,0,0,1,.38,1.89v0a3.61,3.61,0,0,1-1.37,3A6.09,6.09,0,0,1,138,25.7Z"/><path class="cls-1" d="M148.87,11.32V25.56h-2V11.32Z"/><path class="cls-1" d="M157.67,25.7a9.35,9.35,0,0,1-1.95-.19,7.32,7.32,0,0,1-3.21-1.57l1.25-1.53a5.73,5.73,0,0,0,1.79,1.06,6.33,6.33,0,0,0,2.12.35,4.19,4.19,0,0,0,2.4-.58,1.82,1.82,0,0,0,.85-1.61h0a1.66,1.66,0,0,0-.43-1.24,2.56,2.56,0,0,0-1.13-.65,12,12,0,0,0-1.53-.34c-.54-.1-1.08-.2-1.62-.33a5.2,5.2,0,0,1-1.5-.58,2.9,2.9,0,0,1-1.11-1.14,4.18,4.18,0,0,1-.41-2h0a3.78,3.78,0,0,1,1.32-3.08,5.7,5.7,0,0,1,3.73-1.09,6.88,6.88,0,0,1,2.24.37,7.85,7.85,0,0,1,2.14,1.12l-1.14,1.59a6.31,6.31,0,0,0-1.62-.91,4.86,4.86,0,0,0-1.62-.29,3.83,3.83,0,0,0-2.27.58,1.93,1.93,0,0,0-.8,1.65h0a1.54,1.54,0,0,0,.47,1.23,2.86,2.86,0,0,0,1.23.62c.5.13,1,.26,1.63.38s1,.23,1.56.37a5.29,5.29,0,0,1,1.43.64,3.07,3.07,0,0,1,1,1.14,4.09,4.09,0,0,1,.38,1.89v0a3.61,3.61,0,0,1-1.37,3A6.09,6.09,0,0,1,157.67,25.7Z"/><path class="cls-1" d="M55.89,37.87V30.64h.72v7.23Zm.44-3v-.67h1.91a1.14,1.14,0,0,0,.86-.33,1.21,1.21,0,0,0,.32-.89v-.38a1.25,1.25,0,0,0-.32-.9,1.11,1.11,0,0,0-.86-.34H56.33v-.67h1.86a2.28,2.28,0,0,1,1,.23,1.65,1.65,0,0,1,.67.64,2,2,0,0,1,.23,1v.42a2.15,2.15,0,0,1-.23,1,1.64,1.64,0,0,1-.68.65,2.21,2.21,0,0,1-1,.23Zm3.21,3-1.3-3.28.65-.22,1.5,3.5Z"/><path class="cls-1" d="M63.58,38a1.88,1.88,0,0,1-1.41-.53,2.05,2.05,0,0,1-.5-1.49V34.75a2.31,2.31,0,0,1,.48-1.56,1.71,1.71,0,0,1,1.37-.55,1.64,1.64,0,0,1,1.32.53,2.13,2.13,0,0,1,.47,1.49v.94H62.13v-.66h2.49v-.32a1.44,1.44,0,0,0-.29-1,1,1,0,0,0-.81-.35,1.05,1.05,0,0,0-.86.37,1.55,1.55,0,0,0-.3,1V36a1.34,1.34,0,0,0,.32,1,1.15,1.15,0,0,0,.9.35,1.06,1.06,0,0,0,.65-.19,1.05,1.05,0,0,0,.36-.53l.66.21a1.45,1.45,0,0,1-.58.87A1.87,1.87,0,0,1,63.58,38Z"/><path class="cls-1" d="M68.49,38a2.28,2.28,0,0,1-1.19-.29,1.58,1.58,0,0,1-.66-.87l.58-.26a1.64,1.64,0,0,0,.53.6,1.31,1.31,0,0,0,.74.21,1.46,1.46,0,0,0,.9-.24.79.79,0,0,0,.32-.69.63.63,0,0,0-.18-.49,1.09,1.09,0,0,0-.48-.24l-.65-.12-.57-.11a1.85,1.85,0,0,1-.52-.22,1,1,0,0,1-.38-.39,1.35,1.35,0,0,1-.14-.68A1.4,1.4,0,0,1,67.23,33a2,2,0,0,1,1.31-.39,2.05,2.05,0,0,1,1.06.25,1.55,1.55,0,0,1,.62.77l-.59.26a1.5,1.5,0,0,0-.47-.5,1.13,1.13,0,0,0-.63-.18,1.28,1.28,0,0,0-.81.23.82.82,0,0,0-.27.67.58.58,0,0,0,.17.47,1.07,1.07,0,0,0,.48.22,5.86,5.86,0,0,0,.63.12l.58.11a1.63,1.63,0,0,1,.53.21,1.13,1.13,0,0,1,.39.42,1.62,1.62,0,0,1,.14.72,1.38,1.38,0,0,1-.48,1.14A2.12,2.12,0,0,1,68.49,38Z"/><path class="cls-1" d="M71.43,33.36v-.64h2.28v.64Zm1.74,4.54a1.11,1.11,0,0,1-.92-.36,1.56,1.56,0,0,1-.29-1V31.22h.72v5.32a.78.78,0,0,0,.15.51.53.53,0,0,0,.44.18h.44v.67Z"/><path class="cls-1" d="M76.79,38a1.73,1.73,0,0,1-1.21-.39,1.5,1.5,0,0,1-.41-1.13,1.64,1.64,0,0,1,.42-1.22,1.75,1.75,0,0,1,1.24-.41h1.32l.07.59H76.84a1,1,0,0,0-.74.26,1.09,1.09,0,0,0-.25.78.81.81,0,0,0,.28.68,1.18,1.18,0,0,0,.8.24,1.66,1.66,0,0,0,.88-.2.64.64,0,0,0,.3-.57l.1.55a.94.94,0,0,1-.27.45,1.25,1.25,0,0,1-.48.27A1.93,1.93,0,0,1,76.79,38Zm1.32-.08V34.35a1.14,1.14,0,0,0-.28-.81,1.09,1.09,0,0,0-.81-.28,1.26,1.26,0,0,0-.65.17,1.06,1.06,0,0,0-.42.49l-.6-.18a1.38,1.38,0,0,1,.58-.81,1.87,1.87,0,0,1,1.09-.3,1.81,1.81,0,0,1,1.31.45,1.63,1.63,0,0,1,.46,1.25v3.54Z"/><path class="cls-1" d="M81.33,32.72v3.46a1.14,1.14,0,0,0,.28.81,1.1,1.1,0,0,0,.81.29,1.08,1.08,0,0,0,.79-.27,1,1,0,0,0,.28-.78l.07.87a1.43,1.43,0,0,1-.51.61,1.6,1.6,0,0,1-.91.24A1.39,1.39,0,0,1,81,37.48a1.92,1.92,0,0,1-.4-1.31V32.72Zm2.16,5.15V32.72h.71v5.15Z"/><path class="cls-1" d="M86,37.87V32.72h.71v5.15Zm2.69-4.4a.44.44,0,0,0-.21-.13.82.82,0,0,0-.28,0,1.57,1.57,0,0,0-1.08.34,1.3,1.3,0,0,0-.41,1l-.1-1a1.92,1.92,0,0,1,.74-.73,2,2,0,0,1,1-.26,1,1,0,0,1,.32,0,.72.72,0,0,1,.25.16Z"/><path class="cls-1" d="M91.75,38a1.7,1.7,0,0,1-1.2-.39,1.47,1.47,0,0,1-.42-1.13,1.61,1.61,0,0,1,.43-1.22,1.71,1.71,0,0,1,1.23-.41h1.33l.07.59H91.8a1,1,0,0,0-.74.26,1.14,1.14,0,0,0-.25.78.81.81,0,0,0,.28.68,1.18,1.18,0,0,0,.8.24,1.64,1.64,0,0,0,.88-.2.64.64,0,0,0,.3-.57l.11.55a1.13,1.13,0,0,1-.27.45,1.25,1.25,0,0,1-.48.27A2,2,0,0,1,91.75,38Zm1.32-.08V34.35A1,1,0,0,0,92,33.26a1.29,1.29,0,0,0-.65.17,1.1,1.1,0,0,0-.41.49l-.61-.18a1.38,1.38,0,0,1,.58-.81,1.87,1.87,0,0,1,1.09-.3,1.81,1.81,0,0,1,1.31.45,1.64,1.64,0,0,1,.47,1.25v3.54Z"/><path class="cls-1" d="M95.58,37.87V32.72h.72v5.15Zm2.93,0V34.48a1.17,1.17,0,0,0-.29-.87,1.05,1.05,0,0,0-.83-.31,1.06,1.06,0,0,0-.81.3,1.19,1.19,0,0,0-.28.86l-.11-.86a1.55,1.55,0,0,1,.62-.74,1.72,1.72,0,0,1,.88-.23,1.38,1.38,0,0,1,1.14.48,2.08,2.08,0,0,1,.4,1.38v3.38Z"/><path class="cls-1" d="M100.66,33.36v-.64h2.27v.64Zm1.73,4.54a1.11,1.11,0,0,1-.92-.36,1.56,1.56,0,0,1-.28-1V31.22h.71v5.32a.78.78,0,0,0,.15.51.54.54,0,0,0,.44.18h.44v.67Z"/><path class="cls-1" d="M110.18,35.89l2-5.24h.72v7.22h-.7v-6l.06.31-1.78,4.69h-.55l-1.78-4.59.06-.41v6h-.7V30.65h.72Z"/><path class="cls-1" d="M116.21,38a1.71,1.71,0,0,1-1.21-.39,1.47,1.47,0,0,1-.42-1.13,1.65,1.65,0,0,1,.43-1.22,1.75,1.75,0,0,1,1.24-.41h1.32l.07.59h-1.39a1,1,0,0,0-.73.26,1.1,1.1,0,0,0-.26.78.84.84,0,0,0,.28.68,1.19,1.19,0,0,0,.8.24,1.61,1.61,0,0,0,.88-.2.64.64,0,0,0,.3-.57l.11.55a.94.94,0,0,1-.27.45,1.25,1.25,0,0,1-.48.27A2,2,0,0,1,116.21,38Zm1.31-.08V34.35a1,1,0,0,0-1.08-1.09,1.23,1.23,0,0,0-.65.17,1.06,1.06,0,0,0-.42.49l-.61-.18a1.4,1.4,0,0,1,.59-.81,1.86,1.86,0,0,1,1.08-.3,1.82,1.82,0,0,1,1.32.45,1.67,1.67,0,0,1,.46,1.25v3.54Z"/><path class="cls-1" d="M120,37.87V32.72h.71v5.15Zm2.93,0V34.48a1.22,1.22,0,0,0-.29-.87,1.27,1.27,0,0,0-1.65,0,1.19,1.19,0,0,0-.28.86l-.1-.86a1.53,1.53,0,0,1,.61-.74,1.72,1.72,0,0,1,.88-.23,1.4,1.4,0,0,1,1.15.48,2.14,2.14,0,0,1,.39,1.38v3.38Z"/><path class="cls-1" d="M127,38a1.71,1.71,0,0,1-1.21-.39,1.47,1.47,0,0,1-.42-1.13,1.61,1.61,0,0,1,.43-1.22A1.73,1.73,0,0,1,127,34.8h1.32l.07.59H127a1,1,0,0,0-.73.26,1.1,1.1,0,0,0-.26.78.84.84,0,0,0,.28.68,1.19,1.19,0,0,0,.8.24,1.64,1.64,0,0,0,.88-.2.64.64,0,0,0,.3-.57l.11.55a1.13,1.13,0,0,1-.27.45,1.25,1.25,0,0,1-.48.27A2,2,0,0,1,127,38Zm1.31-.08V34.35a1,1,0,0,0-1.09-1.09,1.29,1.29,0,0,0-.65.17,1.1,1.1,0,0,0-.41.49l-.61-.18a1.38,1.38,0,0,1,.58-.81,1.89,1.89,0,0,1,1.09-.3,1.8,1.8,0,0,1,1.31.45,1.64,1.64,0,0,1,.47,1.25v3.54Z"/><path class="cls-1" d="M132.2,38a1.43,1.43,0,0,1-1.13-.47,2,2,0,0,1-.4-1.34V34.49a2.13,2.13,0,0,1,.39-1.37,1.38,1.38,0,0,1,1.12-.48,1.69,1.69,0,0,1,.86.22,1.65,1.65,0,0,1,.62.7l-.11.85a1.16,1.16,0,0,0-.12-.59,1,1,0,0,0-.36-.41,1,1,0,0,0-.59-.16,1,1,0,0,0-.81.33,1.34,1.34,0,0,0-.29.91v1.65a1.28,1.28,0,0,0,.29.88,1,1,0,0,0,.81.31,1.06,1.06,0,0,0,.58-.15,1.15,1.15,0,0,0,.37-.42,1.4,1.4,0,0,0,.12-.58l.07.88a1.22,1.22,0,0,1-.55.68A1.75,1.75,0,0,1,132.2,38Zm.17,2a1.83,1.83,0,0,1-1.11-.32,1.37,1.37,0,0,1-.52-.9l.64-.2a1,1,0,0,0,.35.57,1.08,1.08,0,0,0,.66.2,1.2,1.2,0,0,0,.86-.3,1.17,1.17,0,0,0,.3-.86V32.72h.71v5.4a1.8,1.8,0,0,1-.49,1.36A1.9,1.9,0,0,1,132.37,40Z"/><path class="cls-1" d="M137.88,38a1.88,1.88,0,0,1-1.41-.53,2.05,2.05,0,0,1-.5-1.49V34.75a2.31,2.31,0,0,1,.48-1.56,1.71,1.71,0,0,1,1.37-.55,1.65,1.65,0,0,1,1.32.53,2.18,2.18,0,0,1,.47,1.49v.94h-3.18v-.66h2.49v-.32a1.44,1.44,0,0,0-.29-1,1,1,0,0,0-.81-.35,1.05,1.05,0,0,0-.86.37,1.55,1.55,0,0,0-.3,1V36a1.34,1.34,0,0,0,.32,1,1.14,1.14,0,0,0,.9.35,1.08,1.08,0,0,0,.65-.19,1.05,1.05,0,0,0,.36-.53l.66.21a1.45,1.45,0,0,1-.58.87A1.87,1.87,0,0,1,137.88,38Z"/><path class="cls-1" d="M141.32,37.87V32.72H142v5.15Zm2.75,0V34.48a1.36,1.36,0,0,0-.25-.88.89.89,0,0,0-.73-.3,1,1,0,0,0-.79.3,1.26,1.26,0,0,0-.27.87l-.1-.87a1.55,1.55,0,0,1,.59-.74,1.58,1.58,0,0,1,.84-.23,1.27,1.27,0,0,1,1.07.48,2.22,2.22,0,0,1,.36,1.37v3.39Zm2.76,0V34.48a1.3,1.3,0,0,0-.27-.88,1,1,0,0,0-.79-.3.89.89,0,0,0-.73.31,1.43,1.43,0,0,0-.25.91l-.25-.7a1.86,1.86,0,0,1,.56-.88,1.35,1.35,0,0,1,.9-.31,1.4,1.4,0,0,1,1.15.48,2.14,2.14,0,0,1,.4,1.38v3.38Z"/><path class="cls-1" d="M151.16,38a1.88,1.88,0,0,1-1.41-.53,2.1,2.1,0,0,1-.5-1.49V34.75a2.31,2.31,0,0,1,.48-1.56,1.71,1.71,0,0,1,1.37-.55,1.64,1.64,0,0,1,1.32.53,2.13,2.13,0,0,1,.47,1.49v.94h-3.18v-.66h2.49v-.32a1.39,1.39,0,0,0-.29-1,1,1,0,0,0-.81-.35,1.05,1.05,0,0,0-.86.37,1.55,1.55,0,0,0-.3,1V36a1.34,1.34,0,0,0,.32,1,1.15,1.15,0,0,0,.9.35,1.06,1.06,0,0,0,.65-.19,1.05,1.05,0,0,0,.36-.53l.66.21a1.45,1.45,0,0,1-.58.87A1.87,1.87,0,0,1,151.16,38Z"/><path class="cls-1" d="M154.6,37.87V32.72h.71v5.15Zm2.93,0V34.48a1.22,1.22,0,0,0-.29-.87,1.25,1.25,0,0,0-1.64,0,1.19,1.19,0,0,0-.29.86l-.1-.86a1.55,1.55,0,0,1,.62-.74,1.69,1.69,0,0,1,.87-.23,1.39,1.39,0,0,1,1.15.48,2.14,2.14,0,0,1,.39,1.38v3.38Z"/><path class="cls-1" d="M159.67,33.36v-.64H162v.64Zm1.74,4.54a1.11,1.11,0,0,1-.92-.36,1.56,1.56,0,0,1-.29-1V31.22h.72v5.32a.78.78,0,0,0,.15.51.53.53,0,0,0,.44.18H162v.67Z"/><line class="cls-2" x1="55.2" y1="28.3" x2="162.9" y2="28.3"/></g></g></svg>